PathFileType	4	(X/Y/Z)	C:/Users/beibeiliu/ov580/test_trc/User1\sequence.4_training_dense_left.trc
DataRate	CameraRate	NumFrames	NumMarkers	Units	OrigDataRate	OrigDataStartFrame	OrigNumFrames
120	120	20	19	mm	120	126	251
Frame#	Time	ThumbCMC			ThumbMCP			ThumbIP			ThumbTip			IndexMCP			IndexPIP			IndexTip			MiddleMCP			MiddlePIP			MiddleTip			RingMCP			RingPIP			RingTip			PinkyMCP			PinkyPIP			PinkyTip			BackHand1			BackHand2			BackHand3	
		X0	Y0	Z0	X1	Y1	Z1	X2	Y2	Z2	X3	Y3	Z3	X4	Y4	Z4	X5	Y5	Z5	X6	Y6	Z6	X7	Y7	Z7	X8	Y8	Z8	X9	Y9	Z9	X10	Y10	Z10	X11	Y11	Z11	X12	Y12	Z12	X13	Y13	Z13	X14	Y14	Z14	X15	Y15	Z15	X16	Y16	Z16	X17	Y17	Z17	X18	Y18	Z18	
125	1.04167	-160.822	84.4433	10.0419	-143.628	78.2246	-27.4523	-149.651	91.6589	-56.4056	-176.828	103.771	-68.3266	-133.675	140.713	-40.505	-132.595	121.044	-68.2788	-148.691	93.4983	-47.5171	-151.715	152.046	-57.1603	-153.493	125.028	-76.2677	-168.507	103.872	-46.0556	-177.726	149.874	-63.2342	-172.386	117.517	-78.8691	-188.169	99.4115	-54.8659	-203.158	139.403	-61.4688	-193.495	111.039	-69.3841	-199.5	97.989	-40.4151	-204.856	142.308	-5.59709	-220.034	122.352	18.8509	-181.863	120.004	20.176	
126	1.05	-161.584	86.4094	10.931	-146.804	81.4458	-23.8413	-144.428	94.3506	-56.765	-169.282	106.245	-71.9857	-130.972	143.629	-40.1672	-131.584	122.715	-63.2317	-151.147	96.5193	-41.6973	-155.382	156.211	-49.1402	-147.612	130.775	-72.6622	-164.279	104.312	-46.8088	-176.028	151.146	-63.9145	-173.269	122.064	-73.9649	-184.784	105.571	-48.3596	-203.563	143.352	-60.8262	-189.809	117.764	-68.5999	-196.691	102.423	-38.871	-204.028	146.362	-2.94291	-223.494	119.82	20.6498	-184.305	126.082	21.9352	
127	1.05833	-162.74	89.6159	13.9145	-144.011	83.17	-23.6204	-144.12	97.7577	-50.9576	-164.777	113.08	-74.5801	-133.251	147.962	-36.0581	-130.251	127.591	-58.7335	-149.331	99.8104	-38.8481	-149.785	159.329	-47.9318	-147.432	133.717	-69.3394	-164.602	107.254	-44.6807	-174.755	152.348	-59.532	-173.242	123.472	-71.0175	-181.972	107.678	-39.1451	-202.294	145.528	-59.6453	-191.707	117.794	-68.5811	-194.564	105.82	-35.9423	-206.362	144.36	1.34724	-222.852	126.114	21.0439	-186.209	128.944	23.348	
128	1.06667	-164.888	90.7606	16.0148	-143.594	88.301	-19.8365	-141.86	104.458	-47.6089	-159.904	115.476	-69.064	-134.763	151.38	-29.9546	-130.021	130.043	-56.1845	-140.946	104.57	-38.5151	-151.121	163.236	-45.918	-142.794	139.701	-69.0433	-161.637	109.763	-51.5212	-173.794	152.865	-59.4366	-170.661	124.592	-69.6947	-182.504	108.649	-38.0542	-199.123	147.567	-55.2693	-189.694	118.448	-65.9247	-193.644	108.943	-32.1245	-206.289	147.129	-0.536193	-226.336	125.281	22.2343	-186.835	126.526	28.2117	
129	1.075	-166.987	90.1208	17.7581	-143.647	98.0648	-13.0435	-143.507	121.651	-37.6648	-159.287	130.028	-55.0677	-131.882	151.956	-24.8736	-126.357	132.027	-53.7656	-136.861	107.477	-35.3738	-152.297	161.841	-43.144	-141.428	138.238	-69.0295	-157.342	104.068	-61.8285	-172.365	153.599	-56.5757	-170.103	124.267	-69.1582	-182.858	108.463	-41.0399	-198.016	149.78	-56.347	-186.276	121.467	-63.8247	-192.76	108.438	-32.198	-205.277	147.988	1.92636	-223.538	126.053	23.4686	-183.968	126.659	27.7934	
130	1.08333	-167.266	92.289	16.6345	-142.25	104.225	-11.5024	-143.615	125.824	-34.7624	-161.32	138.43	-54.5724	-131.03	153.204	-24.4289	-127.206	135.981	-54.7296	-138.87	109.622	-31.6966	-148.031	160.535	-42.5482	-141.638	139.214	-69.1946	-155.158	104.055	-62.4681	-173.848	157.074	-53.1719	-166.046	123.009	-66.5562	-181.502	107.976	-39.1524	-193.843	149.545	-55.839	-185.559	123.775	-62.8351	-193.897	109.705	-33.9618	-203.897	152.351	0.592405	-223.485	126.451	20.6011	-185.828	125.588	28.9119	
131	1.09167	-169.76	91.6956	15.3222	-144.509	103.503	-12.346	-143.458	123.925	-34.686	-163.107	137.399	-54.3837	-132.142	154.715	-29.2794	-127.608	139.571	-55.9584	-141.749	112.189	-36.0602	-149.085	161.356	-45.8984	-143.965	137.343	-70.5866	-161.406	102.285	-60.8942	-173.955	155.455	-55.4922	-171.788	124.024	-69.628	-185.416	108.976	-43.5883	-194.368	150.006	-54.1723	-189.898	122.514	-63.5062	-197.915	108.291	-31.8352	-206.895	150.647	0.410666	-222.112	128.047	23.3239	-187.079	126.559	27.4396	
132	1.1	-167.552	94.3675	13.5036	-142.44	101.793	-18.6688	-143.946	122.96	-41.5683	-159.015	133.869	-61.8825	-135.772	155.444	-32.9125	-133.506	138.186	-60.749	-143.639	112.032	-39.5369	-151.223	159.822	-50.3276	-151.047	134.944	-74.0934	-169.148	101.863	-58.1882	-172.881	153.952	-57.7958	-176.393	122.182	-69.7083	-185.967	108.341	-41.9447	-197.571	149.157	-56.2176	-193.323	120.183	-62.0713	-201.233	110.919	-31.7466	-203.594	151.277	-2.0768	-223.738	126.265	23.9736	-181.961	131.326	24.5495	
133	1.10833	-163.279	95.3352	6.7127	-147.96	92.7099	-27.7675	-144.189	108.056	-54.0971	-155.086	123.686	-80.9767	-136.623	154.773	-37.9613	-138.397	137.022	-65.6137	-150.626	111.68	-42.2251	-157.209	159.78	-54.7224	-155.767	131.122	-74.1656	-178.497	108.288	-51.4896	-184.845	155.991	-61.7969	-180.635	123.229	-72.3865	-191.742	109.513	-41.0355	-207.176	147.757	-61.103	-202.045	118.1	-66.1312	-203.123	110.393	-34.7149	-208.716	151.084	-1.11192	-224.833	128.754	21.4561	-186.461	131.71	21.5516	
134	1.11667	-167.78	94.313	1.54607	-155.262	95.7376	-37.3801	-151.01	106.07	-63.289	-160.375	115.808	-88.0326	-142.017	152.729	-47.8758	-141.595	127.739	-72.1535	-158.713	110.314	-48.7681	-161.392	156.738	-61.5268	-165.367	129.149	-80.368	-178.781	108.301	-46.0347	-190.164	151.934	-67.777	-187.702	117.691	-74.655	-199.249	108.613	-41.6028	-211.925	142.936	-67.6407	-204.936	113.918	-63.481	-206.194	110.569	-32.124	-209.56	152.45	-10.045	-221.8	132.524	17.8551	-184.004	134.144	16.5364	
135	1.125	-169.357	93.3616	-1.24051	-158.505	90.0102	-41.0381	-157.422	102.799	-70.821	-166.685	110.535	-97.0485	-146.697	148.113	-61.2659	-154.475	123.65	-79.2787	-165.681	107.625	-50.1885	-168.924	153.126	-69.2226	-171.081	123.689	-84.1863	-187.733	108.911	-46.3536	-191.819	144.535	-73.2353	-197.642	110.714	-75.7381	-201.008	105.688	-42.4814	-217.423	141.09	-65.634	-213.108	109.133	-64.4479	-212.041	107.329	-32.2999	-210.901	151.328	-11.9425	-226.94	133.59	11.9903	-185.439	133.568	10.7972	
136	1.13333	-172.333	97.6726	-9.28973	-162.471	90.4288	-47.9508	-162.59	95.5941	-74.205	-175.811	106.005	-101.551	-152.743	143.236	-70.508	-162.86	118.637	-86.4094	-171.489	104.89	-55.4394	-175.896	147.95	-77.7889	-180.199	115.171	-87.8138	-187.9	104.569	-49.1347	-202.754	140.33	-76.9081	-203.729	108.211	-79.469	-208.37	103.769	-42.4001	-223.936	132.652	-72.5259	-222.453	104.569	-65.8675	-216.255	108.299	-29.8019	-213.252	148.722	-15.4014	-227.314	133.892	11.2466	-188.146	135.107	4.28557	
137	1.14167	-174.082	97.4304	-12.0801	-166.946	84.654	-49.003	-172.296	93.6574	-78.9486	-187.562	99.7527	-102.231	-160.441	139.102	-75.3197	-167.915	109.305	-90.9854	-172.124	100.281	-57.0525	-184.871	142.996	-81.0631	-189.752	107.646	-91.4888	-197.772	100.67	-52.7501	-213.017	135.469	-80.3138	-215.392	101.458	-78.7149	-211.209	101.22	-41.8981	-231.131	128.505	-72.4506	-228.455	100.446	-63.1313	-219.813	103.557	-33.6226	-216.48	149.513	-19.7572	-227.122	132.657	9.67188	-186.148	135.275	-0.346747	
138	1.15	-175.93	94.036	-12.934	-172.522	81.3709	-50.5289	-177.83	86.611	-84.5306	-196.725	89.9167	-104.075	-168.592	131.24	-85.1085	-181.514	101.278	-93.0878	-177.548	98.3136	-56.8468	-195.856	135.023	-90.7379	-200.121	100.078	-92.1479	-201.909	95.1187	-54.0091	-218.782	129.308	-82.3916	-219.455	94.525	-77.1815	-219.883	96.8993	-43.5662	-235.656	122.211	-72.9667	-234.41	95.3323	-60.9679	-223.193	101.24	-33.4315	-220.201	151.46	-26.5937	-225.704	133.083	10.0344	-186.126	135.361	-7.4063	
139	1.15833	-173.5	91.5598	-18.1293	-174.928	76.9198	-55.2108	-186.14	80.9438	-83.287	-204.017	83.315	-99.6372	-173.748	121.617	-90.8557	-186.936	91.6519	-94.093	-185.903	93.4025	-60.6	-205.021	126.688	-95.0259	-209.308	94.7295	-94.9196	-205.424	89.3109	-55.1819	-225.871	120.304	-83.9442	-227.713	87.7548	-72.5607	-218.95	94.3385	-40.9378	-243.938	122.378	-70.2671	-240.911	92.6427	-61.1417	-228.442	102.025	-30.3426	-220.01	145.687	-25.8095	-223.881	137.562	4.55199	-189.459	132.662	-9.52939	
140	1.16667	-176.251	89.9639	-18.9331	-178.439	70.1224	-53.1352	-190.563	72.1249	-82.4594	-213.51	76.3059	-101.621	-183.31	114.518	-93.4091	-196.841	84.5926	-92.5886	-190.916	89.5791	-58.876	-206.812	120.548	-92.7911	-217.08	87.0568	-91.9655	-208.694	86.9735	-51.4864	-228.908	115.3	-84.2387	-230.014	81.7911	-70.1989	-220.564	90.4817	-40.0558	-248.14	115.615	-69.7126	-244.26	88.8879	-57.9278	-227.782	97.7521	-33.3288	-220.48	143.364	-29.1148	-221.989	133.645	7.68568	-184.682	131.677	-14.66	
141	1.175	-176.08	86.0764	-17.6642	-182.835	67.8461	-51.376	-192.113	63.9461	-80.4049	-215.106	67.7905	-95.2644	-184.272	108.008	-92.2103	-199.652	80.1657	-94.8183	-189.154	83.3649	-58.1126	-212.827	115.547	-93.0925	-217.586	77.7541	-87.6388	-210.963	80.7176	-50.7254	-236.732	107.899	-83.2497	-237.09	79.1385	-68.6156	-227.664	85.9809	-38.8611	-253.438	108.741	-69.5323	-247.824	84.3316	-56.6923	-227.69	96.0108	-27.2871	-221.867	141.797	-33.6707	-222.335	136.722	3.30298	-189.61	128.25	-15.6546	
142	1.18333	-175.372	82.9298	-14.6757	-183.312	63.6623	-49.1948	-196.153	59.7771	-77.2408	-220.18	63.2182	-91.6165	-187.858	103.714	-92.5971	-204.906	74.3946	-90.6213	-195.567	79.3743	-57.5726	-213.781	106.811	-93.4269	-223.734	74.8147	-86.821	-214.729	80.5594	-46.8288	-235.525	105.067	-81.088	-239.101	74.4651	-66.2741	-221.884	84.0969	-35.4848	-256.462	104.367	-66.8878	-246.404	80.7694	-54.0732	-231.082	90.0228	-25.1299	-222.113	138.741	-31.762	-223.907	136.628	3.45971	-190.753	127.663	-14.8632	
143	1.19167	-175.335	83.4828	-15.4294	-185.103	61.7855	-46.8155	-197.323	55.261	-73.1798	-222.122	57.5838	-87.9518	-189.878	97.0699	-91.5576	-204.889	68.1041	-89.4325	-194.109	74.5928	-55.4869	-219.214	101.055	-93.177	-225.03	68.7641	-81.8806	-211.761	75.0885	-45.1486	-238.272	100.499	-79.44	-239.096	68.4849	-61.2491	-226.87	77.1118	-34.9975	-256.766	103.879	-63.5915	-247.115	76.4471	-51.3592	-230.759	90.2594	-22.6973	-221.055	137.184	-33.7747	-224.279	134.507	4.00964	-191.953	125.005	-16.2049	
144	1.2	-176.067	80.4976	-13.4533	-182.725	55.8643	-46.7425	-198.272	50.0904	-71.8367	-225.065	50.3706	-88.0747	-190.367	91.8498	-90.9649	-201.71	60.743	-86.5929	-189.993	69.6177	-52.7143	-218.158	96.3961	-90.8736	-224.612	63.6982	-81.8288	-209.921	70.8783	-43.2079	-237.764	89.9693	-79.117	-238.748	64.3696	-63.4336	-226.302	76.3963	-29.9316	-252.813	97.9832	-62.528	-247.785	72.1111	-46.5004	-231.864	82.726	-23.3313	-221.298	132.648	-33.2584	-222.112	132.669	4.23342	-189.025	122.141	-19.3742	
